<?xml version="1.0" standalone="no"?>
<!DOCTYPE svg PUBLIC "-//W3C//DTD SVG 20010904//EN"
 "http://www.w3.org/TR/2001/REC-SVG-20010904/DTD/svg10.dtd">
<svg version="1.0" xmlns="http://www.w3.org/2000/svg"
 width="700.000000pt" height="700.000000pt" viewBox="0 0 700.000000 700.000000"
 preserveAspectRatio="xMidYMid meet">
<metadata>
Created by potrace 1.11, written by Peter Selinger 2001-2013
</metadata>
<g transform="translate(0.000000,700.000000) scale(0.100000,-0.100000)"
fill="#000000" stroke="none">
<path d="M3305 6410 c-409 -30 -769 -130 -1123 -309 -626 -318 -1108 -840
-1381 -1494 -288 -692 -288 -1522 0 -2213 388 -933 1217 -1598 2204 -1768 319
-54 671 -54 990 0 1177 203 2120 1114 2360 2282 78 375 79 796 4 1167 -111
549 -379 1057 -773 1463 -398 411 -958 715 -1512 822 -239 46 -552 66 -769 50z
m443 -591 c294 -31 620 -133 872 -271 323 -177 626 -458 833 -773 248 -378
377 -815 377 -1275 0 -517 -158 -988 -472 -1410 -95 -126 -327 -357 -460 -456
-833 -621 -1968 -620 -2796 0 -126 95 -318 278 -409 391 -511 633 -659 1469
-397 2238 82 238 234 514 388 702 185 226 451 449 696 583 245 134 576 239
855 270 114 13 399 14 513 1z"/>
<path d="M3955 4487 l-980 -462 -463 -984 c-255 -541 -461 -985 -459 -987 2
-3 447 204 988 459 l984 463 462 979 c254 539 462 983 462 988 1 4 -2 7 -6 6
-5 0 -449 -208 -988 -462z m-341 -752 c94 -45 141 -124 141 -235 0 -86 -18
-133 -72 -185 -55 -54 -98 -70 -183 -70 -85 0 -128 16 -183 70 -45 44 -70 98
-75 166 -9 122 53 218 173 266 43 18 152 11 199 -12z"/>
</g>
</svg>
